<svg xmlns="http://www.w3.org/2000/svg" xmlns:xlink="http://www.w3.org/1999/xlink" viewBox="0 0 177.33 126.99"><defs><style>.cls-1{fill:#221f20;filter:url(#luminosity-noclip);}.cls-1,.cls-25,.cls-3{mix-blend-mode:hard-light;}.cls-1,.cls-25{opacity:0.8;}.cls-2{isolation:isolate;}.cls-3{opacity:0.55;fill:url(#Dégradé_sans_nom_82);}.cls-4{fill:#f4adca;opacity:0.5;}.cls-12,.cls-13,.cls-26,.cls-4{mix-blend-mode:overlay;}.cls-10,.cls-5,.cls-6,.cls-7,.cls-9{opacity:0.15;}.cls-5{fill:url(#Dégradé_sans_nom_40);}.cls-6{fill:url(#Dégradé_sans_nom_40-2);}.cls-7{fill:url(#Dégradé_sans_nom_40-3);}.cls-8{fill:url(#Dégradé_sans_nom_40-4);}.cls-9{fill:url(#Dégradé_sans_nom_47);}.cls-10{fill:url(#Dégradé_sans_nom_47-2);}.cls-11{fill:url(#Dégradé_sans_nom_47-3);}.cls-12{fill:url(#Dégradé_sans_nom_90);}.cls-13{fill:url(#Dégradé_sans_nom_90-2);}.cls-14,.cls-15,.cls-16,.cls-17,.cls-22{mix-blend-mode:color-dodge;}.cls-14{fill:url(#Dégradé_sans_nom_101);}.cls-15{fill:url(#Dégradé_sans_nom_101-2);}.cls-16{fill:url(#Dégradé_sans_nom_101-3);}.cls-17{fill:url(#Dégradé_sans_nom_101-4);}.cls-18{fill:#9ed7e9;}.cls-19{fill:url(#Dégradé_sans_nom_70);}.cls-20{fill:url(#Dégradé_sans_nom_56);}.cls-21{fill:url(#Dégradé_sans_nom_71);}.cls-22{fill:url(#Dégradé_sans_nom_50);}.cls-23{mix-blend-mode:soft-light;opacity:0.2;}.cls-24{fill:#fff;opacity:0.21;}.cls-24,.cls-28,.cls-31,.cls-32,.cls-33,.cls-34,.cls-35,.cls-36,.cls-37,.cls-38,.cls-39,.cls-40,.cls-41,.cls-42,.cls-43,.cls-44,.cls-45,.cls-46,.cls-47,.cls-48,.cls-49,.cls-50,.cls-51,.cls-52,.cls-53,.cls-54,.cls-55,.cls-56,.cls-57,.cls-58,.cls-59,.cls-60,.cls-61,.cls-62,.cls-63,.cls-64,.cls-65,.cls-66,.cls-67,.cls-68,.cls-69,.cls-70,.cls-71,.cls-72,.cls-73,.cls-74,.cls-75,.cls-76,.cls-77,.cls-78,.cls-79,.cls-80,.cls-81,.cls-82,.cls-83,.cls-84,.cls-85,.cls-86,.cls-87{mix-blend-mode:screen;}.cls-25{fill:url(#Dégradé_sans_nom_79);}.cls-26{opacity:0.4;fill:url(#Dégradé_sans_nom_87);}.cls-27{mask:url(#mask);}.cls-28{fill:url(#Dégradé_sans_nom_98);}.cls-29{fill:none;stroke:#fff;stroke-linecap:round;stroke-width:4px;opacity:0.84;}.cls-30{opacity:0.17;}.cls-31{fill:url(#Dégradé_sans_nom_101-5);}.cls-32{fill:url(#Dégradé_sans_nom_101-6);}.cls-33{fill:url(#Dégradé_sans_nom_101-7);}.cls-34{fill:url(#Dégradé_sans_nom_101-8);}.cls-35{fill:url(#Dégradé_sans_nom_101-9);}.cls-36{fill:url(#Dégradé_sans_nom_101-10);}.cls-37{fill:url(#Dégradé_sans_nom_101-11);}.cls-38{fill:url(#Dégradé_sans_nom_101-12);}.cls-39{fill:url(#Dégradé_sans_nom_101-13);}.cls-40{fill:url(#Dégradé_sans_nom_101-14);}.cls-41{fill:url(#Dégradé_sans_nom_101-15);}.cls-42{fill:url(#Dégradé_sans_nom_101-16);}.cls-43{fill:url(#Dégradé_sans_nom_101-17);}.cls-44{fill:url(#Dégradé_sans_nom_101-18);}.cls-45{fill:url(#Dégradé_sans_nom_101-19);}.cls-46{fill:url(#Dégradé_sans_nom_101-20);}.cls-47{fill:url(#Dégradé_sans_nom_101-21);}.cls-48{fill:url(#Dégradé_sans_nom_101-22);}.cls-49{fill:url(#Dégradé_sans_nom_101-23);}.cls-50{fill:url(#Dégradé_sans_nom_101-24);}.cls-51{fill:url(#Dégradé_sans_nom_101-25);}.cls-52{fill:url(#Dégradé_sans_nom_101-26);}.cls-53{fill:url(#Dégradé_sans_nom_101-27);}.cls-54{fill:url(#Dégradé_sans_nom_101-28);}.cls-55{fill:url(#Dégradé_sans_nom_101-29);}.cls-56{fill:url(#Dégradé_sans_nom_101-30);}.cls-57{fill:url(#Dégradé_sans_nom_101-31);}.cls-58{fill:url(#Dégradé_sans_nom_101-32);}.cls-59{fill:url(#Dégradé_sans_nom_101-33);}.cls-60{fill:url(#Dégradé_sans_nom_101-34);}.cls-61{fill:url(#Dégradé_sans_nom_101-35);}.cls-62{fill:url(#Dégradé_sans_nom_101-36);}.cls-63{fill:url(#Dégradé_sans_nom_101-37);}.cls-64{fill:url(#Dégradé_sans_nom_101-38);}.cls-65{fill:url(#Dégradé_sans_nom_101-39);}.cls-66{fill:url(#Dégradé_sans_nom_101-40);}.cls-67{fill:url(#Dégradé_sans_nom_101-41);}.cls-68{fill:url(#Dégradé_sans_nom_101-42);}.cls-69{fill:url(#Dégradé_sans_nom_101-43);}.cls-70{fill:url(#Dégradé_sans_nom_101-44);}.cls-71{fill:url(#Dégradé_sans_nom_101-45);}.cls-72{fill:url(#Dégradé_sans_nom_101-46);}.cls-73{fill:url(#Dégradé_sans_nom_101-47);}.cls-74{fill:url(#Dégradé_sans_nom_101-48);}.cls-75{fill:url(#Dégradé_sans_nom_101-49);}.cls-76{fill:url(#Dégradé_sans_nom_101-50);}.cls-77{fill:url(#Dégradé_sans_nom_101-51);}.cls-78{fill:url(#Dégradé_sans_nom_101-52);}.cls-79{fill:url(#Dégradé_sans_nom_101-53);}.cls-80{fill:url(#Dégradé_sans_nom_101-54);}.cls-81{fill:url(#Dégradé_sans_nom_101-55);}.cls-82{fill:url(#Dégradé_sans_nom_101-56);}.cls-83{fill:url(#Dégradé_sans_nom_101-57);}.cls-84{fill:url(#Dégradé_sans_nom_101-58);}.cls-85{fill:url(#Dégradé_sans_nom_101-59);}.cls-86{fill:url(#Dégradé_sans_nom_101-60);}.cls-87{fill:url(#Dégradé_sans_nom_101-61);}</style><linearGradient id="Dégradé_sans_nom_82" x1="120.43" y1="95.73" x2="60.47" y2="35.76" gradientUnits="userSpaceOnUse"><stop offset="0" stop-color="#f4adca" stop-opacity="0"/><stop offset="1" stop-color="#b381b8"/></linearGradient><linearGradient id="Dégradé_sans_nom_40" x1="17.09" y1="26.94" x2="17.09" y2="3.07" gradientUnits="userSpaceOnUse"><stop offset="0" stop-color="#5fbaa0"/><stop offset="1" stop-color="#f2e630"/></linearGradient><linearGradient id="Dégradé_sans_nom_40-2" x1="17.09" y1="25.05" x2="17.09" y2="4.95" xlink:href="#Dégradé_sans_nom_40"/><linearGradient id="Dégradé_sans_nom_40-3" x1="17.09" y1="23.17" x2="17.09" y2="6.84" xlink:href="#Dégradé_sans_nom_40"/><linearGradient id="Dégradé_sans_nom_40-4" x1="17.09" y1="21.29" x2="17.09" y2="8.72" xlink:href="#Dégradé_sans_nom_40"/><linearGradient id="Dégradé_sans_nom_47" x1="157.78" y1="126.99" x2="157.78" y2="111.6" gradientUnits="userSpaceOnUse"><stop offset="0" stop-color="#ce4557"/><stop offset="1" stop-color="#e3b018"/></linearGradient><linearGradient id="Dégradé_sans_nom_47-2" x1="157.78" y1="125.11" x2="157.78" y2="113.48" xlink:href="#Dégradé_sans_nom_47"/><linearGradient id="Dégradé_sans_nom_47-3" x1="157.78" y1="123.22" x2="157.78" y2="115.37" xlink:href="#Dégradé_sans_nom_47"/><linearGradient id="Dégradé_sans_nom_90" x1="158.57" y1="19.42" x2="158.57" y2="25.7" gradientUnits="userSpaceOnUse"><stop offset="0" stop-color="#314798" stop-opacity="0.1"/><stop offset="1" stop-color="#8d4f9a"/></linearGradient><linearGradient id="Dégradé_sans_nom_90-2" x1="21.65" y1="100.76" x2="21.65" y2="107.04" xlink:href="#Dégradé_sans_nom_90"/><linearGradient id="Dégradé_sans_nom_101" x1="57.79" y1="11.43" x2="57.79" y2="8.29" gradientUnits="userSpaceOnUse"><stop offset="0" stop-color="#5fbaa0"/><stop offset="1" stop-color="#f2e630" stop-opacity="0"/></linearGradient><linearGradient id="Dégradé_sans_nom_101-2" x1="97.82" y1="123.2" x2="97.82" y2="120.06" xlink:href="#Dégradé_sans_nom_101"/><linearGradient id="Dégradé_sans_nom_101-3" x1="66.56" y1="52.49" x2="66.56" y2="49.35" xlink:href="#Dégradé_sans_nom_101"/><linearGradient id="Dégradé_sans_nom_101-4" x1="104.74" y1="47.22" x2="104.74" y2="44.08" xlink:href="#Dégradé_sans_nom_101"/><linearGradient id="Dégradé_sans_nom_70" x1="97.08" y1="104.93" x2="89.37" y2="61.17" gradientUnits="userSpaceOnUse"><stop offset="0" stop-color="#4563ac"/><stop offset="0.15" stop-color="#4c6cb1"/><stop offset="0.4" stop-color="#5e84bd"/><stop offset="0.71" stop-color="#7dabd2"/><stop offset="1" stop-color="#9ed7e9"/></linearGradient><linearGradient id="Dégradé_sans_nom_56" x1="96.19" y1="105.41" x2="91.79" y2="80.5" gradientUnits="userSpaceOnUse"><stop offset="0" stop-color="#c5368c"/><stop offset="0.13" stop-color="#c63b8f"/><stop offset="0.29" stop-color="#c84997"/><stop offset="0.46" stop-color="#cc61a6"/><stop offset="0.64" stop-color="#d282b9"/><stop offset="0.82" stop-color="#d9acd2"/><stop offset="1" stop-color="#e1dcef"/></linearGradient><linearGradient id="Dégradé_sans_nom_71" x1="68.13" y1="75.58" x2="66.53" y2="62.55" gradientUnits="userSpaceOnUse"><stop offset="0.1" stop-color="#4563ac"/><stop offset="0.29" stop-color="#638ac0"/><stop offset="0.49" stop-color="#7cabd2"/><stop offset="0.68" stop-color="#8fc3df"/><stop offset="0.85" stop-color="#9ad2e6"/><stop offset="1" stop-color="#9ed7e9"/></linearGradient><linearGradient id="Dégradé_sans_nom_50" x1="131.26" y1="114.8" x2="106.27" y2="89.81" gradientUnits="userSpaceOnUse"><stop offset="0" stop-color="#314798"/><stop offset="1" stop-color="#8d4f9a"/></linearGradient><linearGradient id="Dégradé_sans_nom_79" x1="104.15" y1="103.39" x2="76.74" y2="28.09" gradientUnits="userSpaceOnUse"><stop offset="0" stop-color="#d8db1e"/><stop offset="0.01" stop-color="#d8db21" stop-opacity="0.97"/><stop offset="0.05" stop-color="#dddf3b" stop-opacity="0.75"/><stop offset="0.1" stop-color="#e0e253" stop-opacity="0.55"/><stop offset="0.15" stop-color="#e3e466" stop-opacity="0.38"/><stop offset="0.2" stop-color="#e6e676" stop-opacity="0.24"/><stop offset="0.25" stop-color="#e8e882" stop-opacity="0.13"/><stop offset="0.31" stop-color="#e9e98b" stop-opacity="0.06"/><stop offset="0.37" stop-color="#eaea90" stop-opacity="0.01"/><stop offset="0.45" stop-color="#eaea92" stop-opacity="0"/></linearGradient><linearGradient id="Dégradé_sans_nom_87" x1="120.43" y1="95.73" x2="60.47" y2="35.76" gradientUnits="userSpaceOnUse"><stop offset="0" stop-color="#fff" stop-opacity="0"/><stop offset="1" stop-color="#fff"/></linearGradient><filter id="luminosity-noclip" x="22.04" y="12.58" width="136.81" height="99.52" filterUnits="userSpaceOnUse" color-interpolation-filters="sRGB"><feFlood flood-color="#fff" result="bg"/><feBlend in="SourceGraphic" in2="bg"/></filter><mask id="mask" x="22.04" y="12.58" width="136.81" height="99.52" maskUnits="userSpaceOnUse"><path class="cls-1" d="M126.76,43.84A42.4,42.4,0,1,0,55.64,90Z"/></mask><linearGradient id="Dégradé_sans_nom_98" x1="107.02" y1="78.91" x2="73.87" y2="45.76" gradientUnits="userSpaceOnUse"><stop offset="0" stop-color="#cb5280"/><stop offset="0.5" stop-color="#72374d"/><stop offset="1" stop-color="#1d1d1b"/></linearGradient><linearGradient id="Dégradé_sans_nom_101-5" x1="62.52" y1="70.18" x2="62.52" y2="67.04" xlink:href="#Dégradé_sans_nom_101"/><linearGradient id="Dégradé_sans_nom_101-6" x1="75.16" y1="70.18" x2="75.16" y2="67.04" xlink:href="#Dégradé_sans_nom_101"/><linearGradient id="Dégradé_sans_nom_101-7" x1="66.56" y1="74" x2="66.56" y2="70.86" xlink:href="#Dégradé_sans_nom_101"/><linearGradient id="Dégradé_sans_nom_101-8" x1="56.22" y1="70.86" x2="56.22" y2="67.72" xlink:href="#Dégradé_sans_nom_101"/><linearGradient id="Dégradé_sans_nom_101-9" x1="56.22" y1="78.71" x2="56.22" y2="75.57" xlink:href="#Dégradé_sans_nom_101"/><linearGradient id="Dégradé_sans_nom_101-10" x1="63.76" y1="88.85" x2="63.76" y2="85.71" xlink:href="#Dégradé_sans_nom_101"/><linearGradient id="Dégradé_sans_nom_101-11" x1="68.56" y1="80.17" x2="68.56" y2="77.03" xlink:href="#Dégradé_sans_nom_101"/><linearGradient id="Dégradé_sans_nom_101-12" x1="73.59" y1="87.28" x2="73.59" y2="84.14" xlink:href="#Dégradé_sans_nom_101"/><linearGradient id="Dégradé_sans_nom_101-13" x1="79.48" y1="83.47" x2="79.48" y2="80.33" xlink:href="#Dégradé_sans_nom_101"/><linearGradient id="Dégradé_sans_nom_101-14" x1="83.87" y1="74.56" x2="83.87" y2="71.42" xlink:href="#Dégradé_sans_nom_101"/><linearGradient id="Dégradé_sans_nom_101-15" x1="93.39" y1="70.86" x2="93.39" y2="67.72" xlink:href="#Dégradé_sans_nom_101"/><linearGradient id="Dégradé_sans_nom_101-16" x1="106.31" y1="67.31" x2="106.31" y2="64.17" xlink:href="#Dégradé_sans_nom_101"/><linearGradient id="Dégradé_sans_nom_101-17" x1="114.32" y1="77.14" x2="114.32" y2="74" xlink:href="#Dégradé_sans_nom_101"/><linearGradient id="Dégradé_sans_nom_101-18" x1="120.34" y1="70.86" x2="120.34" y2="67.72" xlink:href="#Dégradé_sans_nom_101"/><linearGradient id="Dégradé_sans_nom_101-19" x1="121.15" y1="78.71" x2="121.15" y2="75.57" xlink:href="#Dégradé_sans_nom_101"/><linearGradient id="Dégradé_sans_nom_101-20" x1="104.74" y1="86.21" x2="104.74" y2="83.07" xlink:href="#Dégradé_sans_nom_101"/><linearGradient id="Dégradé_sans_nom_101-21" x1="96.25" y1="92.19" x2="96.25" y2="89.05" xlink:href="#Dégradé_sans_nom_101"/><linearGradient id="Dégradé_sans_nom_101-22" x1="112.75" y1="86.21" x2="112.75" y2="83.07" xlink:href="#Dégradé_sans_nom_101"/><linearGradient id="Dégradé_sans_nom_101-23" x1="112.75" y1="96.05" x2="112.75" y2="92.91" xlink:href="#Dégradé_sans_nom_101"/><linearGradient id="Dégradé_sans_nom_101-24" x1="105.55" y1="96.05" x2="105.55" y2="92.91" xlink:href="#Dégradé_sans_nom_101"/><linearGradient id="Dégradé_sans_nom_101-25" x1="94.68" y1="100.76" x2="94.68" y2="97.62" xlink:href="#Dégradé_sans_nom_101"/><linearGradient id="Dégradé_sans_nom_101-26" x1="86.01" y1="102.33" x2="86.01" y2="99.19" xlink:href="#Dégradé_sans_nom_101"/><linearGradient id="Dégradé_sans_nom_101-27" x1="87.58" y1="93.76" x2="87.58" y2="90.62" xlink:href="#Dégradé_sans_nom_101"/><linearGradient id="Dégradé_sans_nom_101-28" x1="77.52" y1="99.19" x2="77.52" y2="96.05" xlink:href="#Dégradé_sans_nom_101"/><linearGradient id="Dégradé_sans_nom_101-29" x1="62.52" y1="72.64" x2="62.52" y2="71.2" xlink:href="#Dégradé_sans_nom_101"/><linearGradient id="Dégradé_sans_nom_101-30" x1="69.72" y1="68.76" x2="69.72" y2="67.31" xlink:href="#Dégradé_sans_nom_101"/><linearGradient id="Dégradé_sans_nom_101-31" x1="74.46" y1="73.15" x2="74.46" y2="71.71" xlink:href="#Dégradé_sans_nom_101"/><linearGradient id="Dégradé_sans_nom_101-32" x1="84.44" y1="78.15" x2="84.44" y2="76.71" xlink:href="#Dégradé_sans_nom_101"/><linearGradient id="Dégradé_sans_nom_101-33" x1="89.15" y1="71.58" x2="89.15" y2="70.14" xlink:href="#Dégradé_sans_nom_101"/><linearGradient id="Dégradé_sans_nom_101-34" x1="66.55" y1="67.31" x2="66.55" y2="65.87" xlink:href="#Dégradé_sans_nom_101"/><linearGradient id="Dégradé_sans_nom_101-35" x1="60.23" y1="78.59" x2="60.23" y2="77.15" xlink:href="#Dégradé_sans_nom_101"/><linearGradient id="Dégradé_sans_nom_101-36" x1="73.18" y1="82.52" x2="73.18" y2="81.08" xlink:href="#Dégradé_sans_nom_101"/><linearGradient id="Dégradé_sans_nom_101-37" x1="66.99" y1="82.62" x2="66.99" y2="81.18" xlink:href="#Dégradé_sans_nom_101"/><linearGradient id="Dégradé_sans_nom_101-38" x1="70.13" y1="91.32" x2="70.13" y2="89.88" xlink:href="#Dégradé_sans_nom_101"/><linearGradient id="Dégradé_sans_nom_101-39" x1="80.39" y1="80.05" x2="80.39" y2="78.61" xlink:href="#Dégradé_sans_nom_101"/><linearGradient id="Dégradé_sans_nom_101-40" x1="60.95" y1="82.62" x2="60.95" y2="81.18" xlink:href="#Dégradé_sans_nom_101"/><linearGradient id="Dégradé_sans_nom_101-41" x1="75.95" y1="77.72" x2="75.95" y2="76.28" xlink:href="#Dégradé_sans_nom_101"/><linearGradient id="Dégradé_sans_nom_101-42" x1="92.7" y1="72.64" x2="92.7" y2="71.2" xlink:href="#Dégradé_sans_nom_101"/><linearGradient id="Dégradé_sans_nom_101-43" x1="117.53" y1="78.87" x2="117.53" y2="77.43" xlink:href="#Dégradé_sans_nom_101"/><linearGradient id="Dégradé_sans_nom_101-44" x1="98.79" y1="68.04" x2="98.79" y2="66.59" xlink:href="#Dégradé_sans_nom_101"/><linearGradient id="Dégradé_sans_nom_101-45" x1="111.18" y1="78.15" x2="111.18" y2="76.71" xlink:href="#Dégradé_sans_nom_101"/><linearGradient id="Dégradé_sans_nom_101-46" x1="105.55" y1="80.05" x2="105.55" y2="78.61" xlink:href="#Dégradé_sans_nom_101"/><linearGradient id="Dégradé_sans_nom_101-47" x1="99.51" y1="82.62" x2="99.51" y2="81.18" xlink:href="#Dégradé_sans_nom_101"/><linearGradient id="Dégradé_sans_nom_101-48" x1="103.17" y1="92.06" x2="103.17" y2="90.62" xlink:href="#Dégradé_sans_nom_101"/><linearGradient id="Dégradé_sans_nom_101-49" x1="96.97" y1="74.72" x2="96.97" y2="73.28" xlink:href="#Dégradé_sans_nom_101"/><linearGradient id="Dégradé_sans_nom_101-50" x1="88.8" y1="97.84" x2="88.8" y2="96.4" xlink:href="#Dégradé_sans_nom_101"/><linearGradient id="Dégradé_sans_nom_101-51" x1="94.96" y1="95.92" x2="94.96" y2="94.48" xlink:href="#Dégradé_sans_nom_101"/><linearGradient id="Dégradé_sans_nom_101-52" x1="94.24" y1="77" x2="94.24" y2="75.56" xlink:href="#Dégradé_sans_nom_101"/><linearGradient id="Dégradé_sans_nom_101-53" x1="102.45" y1="63.06" x2="102.45" y2="61.62" xlink:href="#Dégradé_sans_nom_101"/><linearGradient id="Dégradé_sans_nom_101-54" x1="125.21" y1="67.31" x2="125.21" y2="65.87" xlink:href="#Dégradé_sans_nom_101"/><linearGradient id="Dégradé_sans_nom_101-55" x1="118.76" y1="85.58" x2="118.76" y2="84.14" xlink:href="#Dégradé_sans_nom_101"/><linearGradient id="Dégradé_sans_nom_101-56" x1="82.6" y1="97.12" x2="82.6" y2="95.68" xlink:href="#Dégradé_sans_nom_101"/><linearGradient id="Dégradé_sans_nom_101-57" x1="81.16" y1="102.2" x2="81.16" y2="100.76" xlink:href="#Dégradé_sans_nom_101"/><linearGradient id="Dégradé_sans_nom_101-58" x1="83.33" y1="93.63" x2="83.33" y2="92.19" xlink:href="#Dégradé_sans_nom_101"/><linearGradient id="Dégradé_sans_nom_101-59" x1="84.05" y1="84.86" x2="84.05" y2="83.42" xlink:href="#Dégradé_sans_nom_101"/><linearGradient id="Dégradé_sans_nom_101-60" x1="88.88" y1="78.87" x2="88.88" y2="77.43" xlink:href="#Dégradé_sans_nom_101"/><linearGradient id="Dégradé_sans_nom_101-61" x1="79.49" y1="87.27" x2="79.49" y2="85.83" xlink:href="#Dégradé_sans_nom_101"/></defs><g class="cls-2"><g id="Calque_2" data-name="Calque 2"><g id="BG"><circle id="base" class="cls-3" cx="90.45" cy="65.74" r="42.4"/><path class="cls-4" d="M90.45,23.34a42.41,42.41,0,1,0,42.4,42.4A42.4,42.4,0,0,0,90.45,23.34Zm28.31,70.72a40,40,0,1,1,11.73-28.32A39.79,39.79,0,0,1,118.76,94.06Z"/><circle class="cls-5" cx="17.09" cy="15" r="11.94"/><circle class="cls-6" cx="17.09" cy="15" r="10.05"/><circle class="cls-7" cx="17.09" cy="15" r="8.17"/><circle class="cls-8" cx="17.09" cy="15" r="6.28"/><circle class="cls-9" cx="157.78" cy="119.3" r="7.7"/><circle class="cls-10" cx="157.78" cy="119.3" r="5.81"/><circle class="cls-11" cx="157.78" cy="119.3" r="3.93"/><circle class="cls-12" cx="158.57" cy="22.56" r="3.14"/><circle class="cls-13" cx="21.65" cy="103.9" r="3.14"/><circle class="cls-14" cx="57.79" cy="9.86" r="1.57"/><circle class="cls-15" cx="97.82" cy="121.63" r="1.57"/><circle class="cls-16" cx="66.56" cy="50.92" r="1.57"/><circle class="cls-17" cx="104.74" cy="45.65" r="1.57"/><path class="cls-18" d="M2.6,54.26,3,56.41s0,0,0,0l2.15.37s0,0,0,0L3,57.22s0,0,0,0L2.6,59.39s0,0,0,0l-.38-2.15s0,0,0,0L0,56.84s0,0,0,0l2.15-.37s0,0,0,0l.38-2.15S2.59,54.24,2.6,54.26Z"/><path class="cls-18" d="M174.77,73l.38,2.15s0,0,0,0l2.15.38s0,0,0,0l-2.15.38s0,0,0,0l-.38,2.15s0,0,0,0L174.35,76s0,0,0,0l-2.15-.38s0,0,0,0l2.15-.38s0,0,0,0l.38-2.15S174.76,73,174.77,73Z"/><path class="cls-18" d="M77.53.42l.29,1.64h0l1.64.29a0,0,0,1,1,0,0l-1.64.29h0l-.29,1.63s0,0,0,0l-.29-1.63h0l-1.64-.29a0,0,0,1,1,0,0l1.64-.29h0L77.51.42S77.53.41,77.53.42Z"/><path class="cls-18" d="M69.44,115.38l.28,1.64a0,0,0,0,0,0,0l1.64.29s0,0,0,0l-1.64.28s0,0,0,0l-.28,1.63s0,0,0,0l-.29-1.63s0,0,0,0l-1.64-.28s0,0,0,0l1.64-.29a0,0,0,0,0,0,0l.29-1.64Z"/><path class="cls-18" d="M33.05,45a1.18,1.18,0,0,1-1.67-1.67c.46-.46,8.33-6.66,8.33-6.66S33.51,44.55,33.05,45Z"/><path class="cls-18" d="M51.13,117.48a1.17,1.17,0,0,1-1.66,0,1.18,1.18,0,0,1,0-1.67c.46-.46,8.32-6.66,8.32-6.66S51.59,117,51.13,117.48Z"/><path class="cls-18" d="M126,8.33a1.17,1.17,0,0,1-1.66,0,1.18,1.18,0,0,1,0-1.67c.46-.46,8.32-6.66,8.32-6.66S126.45,7.87,126,8.33Z"/><path class="cls-18" d="M143.66,56.48A1.18,1.18,0,1,1,142,54.81c.46-.46,8.33-6.66,8.33-6.66S144.12,56,143.66,56.48Z"/><path class="cls-18" d="M164.42,52.72a.53.53,0,0,1-.75-.75c.21-.21,3.77-3,3.77-3S164.63,52.51,164.42,52.72Z"/><path class="cls-18" d="M140.6,6.14a.54.54,0,0,1-.76,0,.53.53,0,0,1,0-.75c.21-.21,3.77-3,3.77-3S140.8,5.94,140.6,6.14Z"/><path class="cls-18" d="M23.74,65.66A.54.54,0,0,1,23,64.9c.21-.2,3.77-3,3.77-3S23.94,65.45,23.74,65.66Z"/><path class="cls-18" d="M47,22.18a.53.53,0,0,1-.75-.75c.21-.21,3.77-3,3.77-3S47.2,22,47,22.18Z"/><path class="cls-18" d="M83,115.29a.53.53,0,0,1-.75-.75c.21-.21,3.77-3,3.77-3S83.2,115.08,83,115.29Z"/><path class="cls-19" d="M116,59.23A32.87,32.87,0,0,0,105,58.5c-10.6,1.12-15.54,6.39-21,10.75-3.79,3.06-7.83,5.68-14.2,6.11-7.13.47-13.31-2.18-18.81-5.91l-.37.3a.41.41,0,0,0,0,.11c0,.17,0,.33.06.5s0,.24,0,.35,0,.34.07.5,0,.24,0,.36.05.32.08.49l.06.35.09.49c0,.12,0,.24.07.35l.09.49c0,.12.05.23.08.35s.07.32.11.48,0,.24.08.35l.12.48.09.35c0,.16.09.32.13.47s.07.24.1.35.09.31.14.47.07.23.1.35l.15.46.12.35.15.45.12.36c.06.14.11.29.17.44s.09.24.13.35.11.3.17.44l.15.35c.05.15.11.29.17.44s.1.23.16.35l.18.42c.06.12.11.24.16.36l.2.42.17.35c.06.14.13.27.2.41l.18.35.21.4c.06.12.12.24.19.36l.21.39.2.35c.08.13.15.26.22.39l.21.35.23.38.22.36.24.37.23.35.24.36.24.35.24.36c.09.11.17.23.26.35s.16.23.25.34l.26.36.25.33.28.35.26.33.29.36.26.3c.1.13.21.25.31.37l.25.29.34.38.24.27.4.42.2.21.61.63a40,40,0,0,0,56.63,0l.7-.72.24-.25.44-.48.32-.36c.11-.13.23-.25.33-.38s.24-.27.35-.41l.29-.34.36-.45.26-.32c.12-.16.25-.32.37-.49l.22-.29.39-.53.18-.26.4-.57a1.88,1.88,0,0,1,.16-.23l.39-.61c0-.07.1-.14.14-.21s.27-.43.4-.64l.11-.19c.14-.22.27-.45.4-.68l.09-.15.39-.71.08-.14.39-.74.06-.12.38-.77,0-.1c.13-.26.25-.53.37-.8a.59.59,0,0,0,0-.08c.12-.27.24-.55.35-.82l0-.06.35-.86v0l.33-.88v0c.11-.3.21-.61.31-.91h0a40.22,40.22,0,0,0,2-12.5h0A46.65,46.65,0,0,0,116,59.23Z"/><path class="cls-20" d="M118.76,94.06a39.71,39.71,0,0,0,6.45-8.41c-6-4.1-14.08-7.91-23.24-6.89-16.25,1.82-17.75,14.93-31.7,15.91a21.75,21.75,0,0,1-8.69-1.18l.55.57a40,40,0,0,0,56.63,0Z"/><path class="cls-21" d="M69.66,75.36c6.38-.43,10.41-3,14.21-6.11-6.16-2-9.78-5-15.47-6.14-4.13-.86-9-.4-17.54,6.34C56.35,73.18,62.54,75.83,69.66,75.36Z"/><circle class="cls-22" cx="118.76" cy="102.3" r="17.67"/><g class="cls-23"><path class="cls-24" d="M118.76,37.43a39.69,39.69,0,0,0-18.71-10.58,38.62,38.62,0,0,1,3,2.73A40,40,0,0,1,74.74,97.94a40.37,40.37,0,0,1-9.6-1.16,40,40,0,0,0,53.62-59.35Z"/></g><path id="LowYellow" class="cls-25" d="M90.45,105.79a40,40,0,1,1,28.31-11.73A39.81,39.81,0,0,1,90.45,105.79Z"/><circle id="Shine" class="cls-26" cx="90.45" cy="65.74" r="42.4"/><g class="cls-27"><path class="cls-28" d="M158,15.05c-6-8.53-41,5.73-78.34,31.85s-62.7,54.2-56.73,62.73S64,103.89,101.26,77.77,164,23.57,158,15.05ZM99.46,75.2C64.29,99.82,31.75,114,26.77,106.92S46.27,74.1,81.44,49.47s67.71-38.83,72.69-31.72S134.62,50.57,99.46,75.2Z"/></g><path class="cls-29" d="M68.56,40.07a33.45,33.45,0,0,1,10.06-6.48"/><path class="cls-29" d="M62.52,46.75A34.39,34.39,0,0,1,65,43.56"/><g class="cls-30"><circle class="cls-31" cx="62.52" cy="68.61" r="1.57"/><circle class="cls-32" cx="75.16" cy="68.61" r="1.57"/><circle class="cls-33" cx="66.56" cy="72.43" r="1.57"/><circle class="cls-34" cx="56.22" cy="69.29" r="1.57"/><circle class="cls-35" cx="56.22" cy="77.14" r="1.57"/><circle class="cls-36" cx="63.76" cy="87.28" r="1.57"/><circle class="cls-37" cx="68.56" cy="78.6" r="1.57"/><circle class="cls-38" cx="73.59" cy="85.71" r="1.57"/><circle class="cls-39" cx="79.48" cy="81.9" r="1.57"/><circle class="cls-40" cx="83.87" cy="72.99" r="1.57"/><circle class="cls-41" cx="93.39" cy="69.29" r="1.57"/><circle class="cls-42" cx="106.31" cy="65.74" r="1.57"/><circle class="cls-43" cx="114.32" cy="75.57" r="1.57"/><circle class="cls-44" cx="120.34" cy="69.29" r="1.57"/><circle class="cls-45" cx="121.15" cy="77.14" r="1.57"/><circle class="cls-46" cx="104.74" cy="84.64" r="1.57"/><circle class="cls-47" cx="96.25" cy="90.62" r="1.57"/><circle class="cls-48" cx="112.75" cy="84.64" r="1.57"/><circle class="cls-49" cx="112.75" cy="94.48" r="1.57"/><circle class="cls-50" cx="105.55" cy="94.48" r="1.57"/><circle class="cls-51" cx="94.68" cy="99.19" r="1.57"/><circle class="cls-52" cx="86.01" cy="100.76" r="1.57"/><circle class="cls-53" cx="87.58" cy="92.19" r="1.57"/><circle class="cls-54" cx="77.52" cy="97.62" r="1.57"/><circle class="cls-55" cx="62.52" cy="71.92" r="0.72"/><circle class="cls-56" cx="69.72" cy="68.04" r="0.72"/><circle class="cls-57" cx="74.46" cy="72.43" r="0.72"/><circle class="cls-58" cx="84.44" cy="77.43" r="0.72"/><circle class="cls-59" cx="89.15" cy="70.86" r="0.72"/><circle class="cls-60" cx="66.55" cy="66.59" r="0.72"/><circle class="cls-61" cx="60.23" cy="77.87" r="0.72"/><circle class="cls-62" cx="73.18" cy="81.8" r="0.72"/><circle class="cls-63" cx="66.99" cy="81.9" r="0.72"/><circle class="cls-64" cx="70.13" cy="90.6" r="0.72"/><circle class="cls-65" cx="80.39" cy="79.33" r="0.72"/><circle class="cls-66" cx="60.95" cy="81.9" r="0.72"/><circle class="cls-67" cx="75.95" cy="77" r="0.72"/><circle class="cls-68" cx="92.7" cy="71.92" r="0.72"/><circle class="cls-69" cx="117.53" cy="78.15" r="0.72"/><circle class="cls-70" cx="98.79" cy="67.31" r="0.72"/><circle class="cls-71" cx="111.18" cy="77.43" r="0.72"/><circle class="cls-72" cx="105.55" cy="79.33" r="0.72"/><circle class="cls-73" cx="99.51" cy="81.9" r="0.72"/><circle class="cls-74" cx="103.17" cy="91.34" r="0.72"/><circle class="cls-75" cx="96.97" cy="74" r="0.72"/><circle class="cls-76" cx="88.8" cy="97.12" r="0.72"/><circle class="cls-77" cx="94.96" cy="95.2" r="0.72"/><circle class="cls-78" cx="94.24" cy="76.28" r="0.72"/><circle class="cls-79" cx="102.45" cy="62.34" r="0.72"/><circle class="cls-80" cx="125.21" cy="66.59" r="0.72"/><circle class="cls-81" cx="118.76" cy="84.86" r="0.72"/><circle class="cls-82" cx="82.6" cy="96.4" r="0.72"/><circle class="cls-83" cx="81.16" cy="101.48" r="0.72"/><circle class="cls-84" cx="83.33" cy="92.91" r="0.72"/><circle class="cls-85" cx="84.05" cy="84.14" r="0.72"/><circle class="cls-86" cx="88.88" cy="78.15" r="0.72"/><circle class="cls-87" cx="79.49" cy="86.55" r="0.72"/></g></g></g></g></svg>